<?xml version="1.0" encoding="utf-8"?>
<!-- Generator: Adobe Illustrator 27.5.0, SVG Export Plug-In . SVG Version: 6.00 Build 0)  -->
<svg version="1.1" xmlns="http://www.w3.org/2000/svg" xmlns:xlink="http://www.w3.org/1999/xlink" x="0px" y="0px"
	 viewBox="0 0 750 500" style="enable-background:new 0 0 750 500;" xml:space="preserve">
<g id="Background_Simple">
	<g>
		<path style="fill:#92E3A9;" d="M706.439,270.9c-2.821-32.637-12.574-64.707-26.595-94.417
			C637.974,87.759,551.914,10.258,448.74,14.164c-66.158,2.505-131.783,11.069-197.584,17.857
			C194.988,37.815,139.11,43.122,94.878,82.129c-19.144,16.882-34.57,38.072-44.051,61.813
			c-26.36,66.006-6.661,143.928,35.934,200.825c42.595,56.897,105.001,95.725,169.163,126.299
			c26.163,12.467,55.519,24.02,83.437,16.243c17.193-4.789,31.595-16.407,47.912-23.64c54.898-24.334,118.558,4.294,178.29-1.875
			c35.483-3.664,69.492-20.23,94.251-45.91c29.573-30.673,45.251-73.246,47.236-115.806
			C707.503,290.333,707.277,280.592,706.439,270.9z"/>
		<path style="opacity:0.7;fill:#FFFFFF;" d="M706.439,270.9c-2.821-32.637-12.574-64.707-26.595-94.417
			C637.974,87.759,551.914,10.258,448.74,14.164c-66.158,2.505-131.783,11.069-197.584,17.857
			C194.988,37.815,139.11,43.122,94.878,82.129c-19.144,16.882-34.57,38.072-44.051,61.813
			c-26.36,66.006-6.661,143.928,35.934,200.825c42.595,56.897,105.001,95.725,169.163,126.299
			c26.163,12.467,55.519,24.02,83.437,16.243c17.193-4.789,31.595-16.407,47.912-23.64c54.898-24.334,118.558,4.294,178.29-1.875
			c35.483-3.664,69.492-20.23,94.251-45.91c29.573-30.673,45.251-73.246,47.236-115.806
			C707.503,290.333,707.277,280.592,706.439,270.9z"/>
	</g>
</g>
<g id="Graphics">
	<g>
		
			<line style="fill:none;stroke:#263238;stroke-linecap:round;stroke-linejoin:round;stroke-miterlimit:10;" x1="226.029" y1="61.56" x2="235.519" y2="71.051"/>
		
			<line style="fill:none;stroke:#263238;stroke-linecap:round;stroke-linejoin:round;stroke-miterlimit:10;" x1="235.519" y1="61.56" x2="226.029" y2="71.051"/>
	</g>
	<g>
		
			<line style="fill:none;stroke:#263238;stroke-linecap:round;stroke-linejoin:round;stroke-miterlimit:10;" x1="698.809" y1="236.847" x2="708.3" y2="246.338"/>
		
			<line style="fill:none;stroke:#263238;stroke-linecap:round;stroke-linejoin:round;stroke-miterlimit:10;" x1="708.3" y1="236.847" x2="698.809" y2="246.338"/>
	</g>
	<g>
		
			<line style="fill:none;stroke:#263238;stroke-linecap:round;stroke-linejoin:round;stroke-miterlimit:10;" x1="150.971" y1="389.422" x2="160.462" y2="398.913"/>
		
			<line style="fill:none;stroke:#263238;stroke-linecap:round;stroke-linejoin:round;stroke-miterlimit:10;" x1="160.462" y1="389.422" x2="150.971" y2="398.913"/>
	</g>
	<g>
		
			<line style="fill:none;stroke:#263238;stroke-linecap:round;stroke-linejoin:round;stroke-miterlimit:10;" x1="434.924" y1="26.744" x2="444.414" y2="36.235"/>
		
			<line style="fill:none;stroke:#263238;stroke-linecap:round;stroke-linejoin:round;stroke-miterlimit:10;" x1="444.414" y1="26.744" x2="434.924" y2="36.235"/>
	</g>
	<g>
		
			<line style="fill:none;stroke:#263238;stroke-linecap:round;stroke-linejoin:round;stroke-miterlimit:10;" x1="441.037" y1="461.377" x2="450.527" y2="470.868"/>
		
			<line style="fill:none;stroke:#263238;stroke-linecap:round;stroke-linejoin:round;stroke-miterlimit:10;" x1="450.527" y1="461.377" x2="441.037" y2="470.868"/>
	</g>
	<g>
		
			<line style="fill:none;stroke:#263238;stroke-linecap:round;stroke-linejoin:round;stroke-miterlimit:10;" x1="542.138" y1="426.561" x2="549.632" y2="434.055"/>
		
			<line style="fill:none;stroke:#263238;stroke-linecap:round;stroke-linejoin:round;stroke-miterlimit:10;" x1="549.632" y1="426.561" x2="542.138" y2="434.055"/>
	</g>
	<g>
		
			<line style="fill:none;stroke:#263238;stroke-linecap:round;stroke-linejoin:round;stroke-miterlimit:10;" x1="667.34" y1="49.73" x2="674.834" y2="57.225"/>
		
			<line style="fill:none;stroke:#263238;stroke-linecap:round;stroke-linejoin:round;stroke-miterlimit:10;" x1="674.834" y1="49.73" x2="667.34" y2="57.225"/>
	</g>
	<path style="fill:none;stroke:#263238;stroke-linecap:round;stroke-linejoin:round;stroke-miterlimit:10;" d="M349.901,74.306
		c0-3.3-2.675-5.975-5.975-5.975c-3.3,0-5.975,2.675-5.975,5.975c0,3.3,2.675,5.975,5.975,5.975
		C347.226,80.282,349.901,77.606,349.901,74.306z"/>
	<path style="fill:none;stroke:#263238;stroke-linecap:round;stroke-linejoin:round;stroke-miterlimit:10;" d="M62.845,53.826
		c0-3.3-2.675-5.975-5.975-5.975c-3.3,0-5.975,2.675-5.975,5.975c0,3.3,2.675,5.975,5.975,5.975
		C60.17,59.802,62.845,57.126,62.845,53.826z"/>
	<path style="fill:none;stroke:#263238;stroke-linecap:round;stroke-linejoin:round;stroke-miterlimit:10;" d="M653.859,417.345
		c0-3.3-2.675-5.975-5.975-5.975c-3.3,0-5.975,2.675-5.975,5.975c0,3.3,2.675,5.975,5.975,5.975
		C651.184,423.32,653.859,420.645,653.859,417.345z"/>
	<path style="fill:none;stroke:#263238;stroke-linecap:round;stroke-linejoin:round;stroke-miterlimit:10;" d="M161.317,473.665
		c0-3.3-2.675-5.975-5.975-5.975c-3.3,0-5.975,2.675-5.975,5.975c0,3.3,2.675,5.975,5.975,5.975
		C158.642,479.64,161.317,476.965,161.317,473.665z"/>
	<path style="fill:none;stroke:#263238;stroke-linecap:round;stroke-linejoin:round;stroke-miterlimit:10;" d="M63.182,244.29
		c0-3.3-2.675-5.975-5.975-5.975c-3.3,0-5.975,2.675-5.975,5.975c0,3.3,2.675,5.975,5.975,5.975
		C60.507,250.265,63.182,247.59,63.182,244.29z"/>
	<path style="fill:none;stroke:#263238;stroke-linecap:round;stroke-linejoin:round;stroke-miterlimit:10;" d="M353.828,364.097
		c0-3.3-2.675-5.975-5.975-5.975c-3.3,0-5.975,2.675-5.975,5.975c0,3.3,2.675,5.975,5.975,5.975
		C351.153,370.073,353.828,367.397,353.828,364.097z"/>
</g>
<g id="Table">
	<g>
		
			<line style="fill:none;stroke:#263238;stroke-linecap:round;stroke-linejoin:round;stroke-miterlimit:10;" x1="724.009" y1="360.372" x2="735.049" y2="362.254"/>
		<polyline style="fill:none;stroke:#263238;stroke-linecap:round;stroke-linejoin:round;stroke-miterlimit:10;" points="
			167.615,375.482 504.759,322.988 716.971,359.172 		"/>
		
			<line style="fill:none;stroke:#263238;stroke-linecap:round;stroke-linejoin:round;stroke-miterlimit:10;" x1="20.832" y1="398.337" x2="152.963" y2="377.764"/>
	</g>
</g>
<g id="Device_2">
	<g>
		<polygon style="fill:#DBDBDB;stroke:#263238;stroke-linecap:round;stroke-linejoin:round;stroke-miterlimit:10;" points="
			591.709,80.608 387.807,105.154 388.212,359.586 593.699,392.35 683.498,373.743 683.903,91.806 		"/>
		
			<line style="fill:none;stroke:#263238;stroke-linecap:round;stroke-linejoin:round;stroke-miterlimit:10;" x1="674.23" y1="365.873" x2="608.894" y2="356.002"/>
		<g>
			<ellipse style="fill:#FFFFFF;" cx="634.865" cy="161.578" rx="29.439" ry="40.424"/>
			<ellipse style="fill:#92E3A9;" cx="634.865" cy="161.578" rx="26.662" ry="36.611"/>
			
				<ellipse style="fill:#263238;stroke:#263238;stroke-linecap:round;stroke-linejoin:round;stroke-miterlimit:10;" cx="634.865" cy="161.578" rx="9.782" ry="13.432"/>
		</g>
		<polygon style="fill:#263238;stroke:#263238;stroke-linecap:round;stroke-linejoin:round;stroke-miterlimit:10;" points="
			572.283,157.611 447.819,161.005 447.819,272.175 575.112,286.035 575.112,160.157 		"/>
		<g>
			<ellipse style="fill:#FFFFFF;" cx="437.994" cy="207.365" rx="29.439" ry="40.424"/>
			<ellipse style="fill:#92E3A9;" cx="437.994" cy="207.365" rx="26.662" ry="36.611"/>
			
				<ellipse style="fill:#263238;stroke:#263238;stroke-linecap:round;stroke-linejoin:round;stroke-miterlimit:10;" cx="437.994" cy="207.365" rx="9.782" ry="13.432"/>
		</g>
		<g>
			<ellipse style="fill:#FFFFFF;" cx="634.865" cy="243.744" rx="29.439" ry="40.424"/>
			<ellipse style="fill:#92E3A9;" cx="634.865" cy="243.744" rx="26.662" ry="36.611"/>
			
				<ellipse style="fill:#263238;stroke:#263238;stroke-linecap:round;stroke-linejoin:round;stroke-miterlimit:10;" cx="634.865" cy="243.744" rx="9.782" ry="13.432"/>
		</g>
		<g>
			<ellipse style="fill:#FFFFFF;" cx="634.865" cy="325.91" rx="29.439" ry="40.424"/>
			<ellipse style="fill:#92E3A9;" cx="634.865" cy="325.91" rx="26.662" ry="36.611"/>
			
				<ellipse style="fill:#263238;stroke:#263238;stroke-linecap:round;stroke-linejoin:round;stroke-miterlimit:10;" cx="634.865" cy="325.91" rx="9.782" ry="13.432"/>
		</g>
		<g>
			<path style="fill:#FFFFFF;stroke:#263238;stroke-linecap:round;stroke-linejoin:round;stroke-miterlimit:10;" d="
				M528.435,201.313c-0.531,0-1.07-0.12-1.578-0.374c-4.818-2.409-11.971-9.767-17.009-17.496
				c-4.84-7.427-9.848-18.301-6.215-27.928c1.766-4.68,8.863-12.594,49.926-27.222c21.995-7.835,43.578-13.91,43.793-13.97
				c1.882-0.525,3.829,0.568,4.357,2.448c0.527,1.879-0.569,3.83-2.448,4.357c-34.876,9.785-85.551,27.697-89.017,36.882
				c-2.724,7.218,2.292,16.615,5.524,21.575c5.217,8.005,11.586,13.703,14.249,15.034c1.745,0.872,2.453,2.995,1.58,4.741
				C530.979,200.598,529.731,201.313,528.435,201.313z"/>
		</g>
		<g>
			<path style="fill:#FFFFFF;stroke:#263238;stroke-linecap:round;stroke-linejoin:round;stroke-miterlimit:10;" d="
				M525.889,222.246c-0.68,0-1.367-0.196-1.973-0.606c-10.043-6.779-13.794-20.951-11.148-42.121
				c1.217-9.733,5.782-18.528,13.957-26.89c10.98-11.23,28.82-21.794,53.025-31.399c53.98-21.421,79.332-14.276,80.388-13.962
				c1.869,0.559,2.932,2.528,2.373,4.397c-0.557,1.865-2.507,2.93-4.38,2.379c-0.342-0.096-24.573-6.564-75.775,13.755
				c-39.649,15.734-60.118,32.938-62.575,52.597c-2.29,18.313,0.432,30.219,8.088,35.387c1.618,1.092,2.044,3.288,0.952,4.905
				C528.138,221.7,527.024,222.246,525.889,222.246z"/>
		</g>
		<polygon style="fill:#FFFFFF;stroke:#263238;stroke-linecap:round;stroke-linejoin:round;stroke-miterlimit:10;" points="
			521.911,252.167 521.911,258.299 544.139,258.299 547.205,254.466 556.786,254.466 556.786,174.369 547.205,172.453 
			542.606,168.237 524.977,168.237 521.911,177.435 		"/>
		
			<rect x="521.911" y="177.435" style="fill:#92E3A9;stroke:#FFFFFF;stroke-linecap:round;stroke-linejoin:round;stroke-miterlimit:10;" width="15.713" height="74.732"/>
		<g>
			<polygon style="fill:#FFFFFF;stroke:#263238;stroke-linecap:round;stroke-linejoin:round;stroke-miterlimit:10;" points="
				583.996,214.609 547.588,211.926 547.588,246.035 582.463,251.017 			"/>
			
				<line style="fill:none;stroke:#263238;stroke-linecap:round;stroke-linejoin:round;stroke-miterlimit:10;" x1="548" y1="216.081" x2="583.563" y2="219.107"/>
			
				<line style="fill:none;stroke:#263238;stroke-linecap:round;stroke-linejoin:round;stroke-miterlimit:10;" x1="547.622" y1="221.945" x2="583.374" y2="225.917"/>
			
				<line style="fill:none;stroke:#263238;stroke-linecap:round;stroke-linejoin:round;stroke-miterlimit:10;" x1="547.811" y1="227.62" x2="582.996" y2="231.781"/>
			
				<line style="fill:none;stroke:#263238;stroke-linecap:round;stroke-linejoin:round;stroke-miterlimit:10;" x1="547.622" y1="233.295" x2="582.996" y2="237.835"/>
			
				<line style="fill:none;stroke:#263238;stroke-linecap:round;stroke-linejoin:round;stroke-miterlimit:10;" x1="547.244" y1="238.213" x2="582.428" y2="243.131"/>
			
				<line style="fill:none;stroke:#263238;stroke-linecap:round;stroke-linejoin:round;stroke-miterlimit:10;" x1="547.433" y1="242.753" x2="582.239" y2="248.239"/>
		</g>
		<polygon style="fill:#263238;stroke:#263238;stroke-linecap:round;stroke-linejoin:round;stroke-miterlimit:10;" points="
			547.588,211.926 547.588,191.3 549.892,192.624 549.892,211.919 		"/>
		<polygon style="fill:#263238;stroke:#263238;stroke-linecap:round;stroke-linejoin:round;stroke-miterlimit:10;" points="
			407.625,261.43 407.625,345.439 413.441,346.052 413.441,262.348 		"/>
		<polygon style="fill:#ABABAB;stroke:#263238;stroke-linecap:round;stroke-linejoin:round;stroke-miterlimit:10;" points="
			413.441,262.348 482.012,258.808 482.012,268.603 584.562,279.93 584.562,316.052 566.195,321.256 481.094,310.236 
			481.094,331.664 580.888,346.358 580.888,374.215 413.441,346.052 		"/>
		<polygon style="fill:#ABABAB;stroke:#263238;stroke-linecap:round;stroke-linejoin:round;stroke-miterlimit:10;" points="
			482.012,268.603 413.135,273.368 548.134,283.297 584.562,279.93 		"/>
		<polygon style="fill:#263238;stroke:#263238;stroke-linecap:round;stroke-linejoin:round;stroke-miterlimit:10;" points="
			548.134,283.297 548.134,318.501 566.195,321.256 584.562,316.052 584.562,279.93 		"/>
		<polygon style="fill:#263238;stroke:#263238;stroke-linecap:round;stroke-linejoin:round;stroke-miterlimit:10;" points="
			413.135,273.368 413.135,303.96 481.094,310.236 548.134,318.501 548.134,283.297 		"/>
		<polyline style="fill:none;stroke:#FFFFFF;stroke-linecap:round;stroke-linejoin:round;stroke-miterlimit:10;" points="
			441.692,305.509 449.336,291.177 504.277,296.671 508.099,300.732 		"/>
		<g>
			<path style="fill:#FFFFFF;stroke:#263238;stroke-linecap:round;stroke-linejoin:round;stroke-miterlimit:10;" d="
				M515.073,286.971c0,0-7.041,3.673-5.51,17.755c1.531,14.082,15.306,32.143,25.714,38.571
				c10.408,6.428,34.898,10.102,38.571,9.796c3.673-0.306,5.816-0.612,5.816-0.612v-14.082c0,0-8.878,2.449-18.367,0
				s-27.857-28.469-30-33.979c-2.143-5.51,2.755-11.326,2.755-11.326v-4.592L515.073,286.971z"/>
			<path style="fill:none;stroke:#263238;stroke-linecap:round;stroke-linejoin:round;stroke-miterlimit:10;" d="M524.256,288.195
				c0,0-6.122,3.061-3.367,16.53c2.755,13.469,14.388,29.694,27.551,38.265c13.163,8.571,25.102,6.735,25.102,6.735"/>
			<path style="fill:none;stroke:#263238;stroke-linecap:round;stroke-linejoin:round;stroke-miterlimit:10;" d="M534.052,288.501
				c0,0-6.332,5.122-5.835,14.056c0.496,8.934,14.393,23.575,20.473,30.028"/>
			<path style="fill:none;stroke:#263238;stroke-linecap:round;stroke-linejoin:round;stroke-miterlimit:10;" d="M526.48,290.769
				c0,0-2.978,5.46-1.241,15.014c1.737,9.554,17.495,28.29,27.918,34.991"/>
			<path style="fill:none;stroke:#263238;stroke-linecap:round;stroke-linejoin:round;stroke-miterlimit:10;" d="M518.911,287.171
				c0,0-3.598,1.861-3.226,12.284c0.372,10.423,8.686,27.422,19.605,38.341"/>
			<path style="fill:none;stroke:#263238;stroke-linecap:round;stroke-linejoin:round;stroke-miterlimit:10;" d="M512.211,301.44
				c0,0-1.241,10.547,10.547,26.926"/>
			<path style="fill:none;stroke:#263238;stroke-linecap:round;stroke-linejoin:round;stroke-miterlimit:10;" d="M557.997,341.767
				c0,0,10.547,2.358,20.597,2.978"/>
		</g>
		<polygon style="fill:#FFFFFF;stroke:#263238;stroke-linecap:round;stroke-linejoin:round;stroke-miterlimit:10;" points="
			407.625,261.43 454.982,258.072 482.012,258.808 413.441,262.348 		"/>
		<polygon style="fill:#263238;stroke:#263238;stroke-linecap:round;stroke-linejoin:round;stroke-miterlimit:10;" points="
			413.862,323.03 465.908,316.077 465.908,329.387 413.664,340.113 413.441,346.052 481.094,331.664 481.094,310.236 
			461.538,308.529 413.465,311.707 		"/>
		<g>
			<path style="fill:#FFFFFF;" d="M417.327,350.896v12.421c0,3.166,19.839,5.733,44.311,5.733c24.472,0,44.311-2.567,44.311-5.733
				v-12.421H417.327z"/>
			<ellipse style="fill:#92E3A9;" cx="461.638" cy="350.896" rx="44.311" ry="5.733"/>
			<path style="fill:#263238;stroke:#263238;stroke-linecap:round;stroke-linejoin:round;stroke-miterlimit:10;" d="M469.64,349.821
				c0,0.99-5.241,1.792-11.705,1.792s-11.705-0.802-11.705-1.792c0-0.989,5.241-1.791,11.705-1.791S469.64,348.831,469.64,349.821z"
				/>
		</g>
		<g>
			<path style="fill:#FFFFFF;" d="M512.118,358.224l-0.357,12.416c-0.091,3.165,19.666,10.128,44.128,10.831
				c24.462,0.703,44.367-1.292,44.458-4.457l0.357-16.243L512.118,358.224z"/>
			<path style="fill:#92E3A9;" d="M600.704,360.771c-0.091,3.165-19.995,5.16-44.458,4.457c-24.462-0.703-44.219-3.839-44.128-7.004
				c0.091-3.165,19.995-5.16,44.458-4.457C581.038,354.47,600.795,357.606,600.704,360.771z"/>
			<path style="fill:#263238;stroke:#263238;stroke-linecap:round;stroke-linejoin:round;stroke-miterlimit:10;" d="
				M564.441,358.653c-0.028,0.989-5.29,1.64-11.752,1.454c-6.462-0.186-11.677-1.138-11.649-2.127
				c0.029-0.989,5.29-1.64,11.752-1.454C559.254,356.712,564.469,357.664,564.441,358.653z"/>
		</g>
		<polygon style="fill:#263238;" points="412.764,103.418 412.764,117.232 465.452,123.657 629.94,109.522 629.94,88.318 
			591.709,80.608 		"/>
		<polygon style="fill:#FFFFFF;" points="412.764,117.232 573.718,99.884 629.94,109.522 465.452,123.657 		"/>
		<path style="fill:#FFFFFF;stroke:#263238;stroke-linecap:round;stroke-linejoin:round;stroke-miterlimit:10;" d="M511.427,233.138
			h-13.501c-3.927,0-7.11-3.183-7.11-7.11v-21.421c0-3.927,3.184-7.11,7.11-7.11h13.501c3.927,0,7.111,3.184,7.111,7.11v21.421
			C518.537,229.955,515.354,233.138,511.427,233.138z"/>
		<path style="fill:#92E3A9;" d="M508.846,227.16h-8.34c-2.784,0-5.041-2.257-5.041-5.041v-13.604c0-2.784,2.257-5.041,5.041-5.041
			h8.34c2.784,0,5.041,2.257,5.041,5.041v13.604C513.887,224.903,511.63,227.16,508.846,227.16z"/>
		<path style="fill:#263238;stroke:#263238;stroke-linecap:round;stroke-linejoin:round;stroke-miterlimit:10;" d="M592.081,73.603
			l1.214,324.41l93.036-20.225l0.809-289.623L592.081,73.603z M680.667,369.698l-76.451,14.967l0.809-297.713l75.642,12.54V369.698z
			"/>
		<path style="fill:#707070;stroke:#263238;stroke-linecap:round;stroke-linejoin:round;stroke-miterlimit:10;" d="M592.081,73.603
			l-209.532,27.506v262.117l210.745,34.787L592.081,73.603z M393.066,355.945l-1.618-247.555l186.475-20.225l1.214,298.927
			L393.066,355.945z"/>
		
			<line style="fill:none;stroke:#263238;stroke-linecap:round;stroke-linejoin:round;stroke-miterlimit:10;" x1="466.94" y1="128.03" x2="466.94" y2="154.823"/>
	</g>
</g>
<g id="Keyboard">
	<g>
		<path style="fill:#263238;stroke:#263238;stroke-linecap:round;stroke-linejoin:round;stroke-miterlimit:10;" d="M259.828,436.983
			c0,0,53.187,13.945,58.052,13.621c4.865-0.324,221.829-46.377,223.451-47.35c1.621-0.973,4.216-6.162,4.216-6.162l-7.784-2.919
			c0,0-71.349-13.945-74.916-13.297c-3.567,0.649-234.478,36.323-236.748,38.593c-2.27,2.27-5.513,4.54-4.54,5.513
			C222.532,425.956,259.828,436.983,259.828,436.983z"/>
		<g>
			<polyline style="fill:none;stroke:#B8B8B8;stroke-linecap:round;stroke-linejoin:round;stroke-miterlimit:10;" points="
				235.18,423.037 311.327,440.858 537.05,395.091 			"/>
			<polyline style="fill:none;stroke:#B8B8B8;stroke-linecap:round;stroke-linejoin:round;stroke-miterlimit:10;" points="
				315.462,442.788 318.77,444.993 542.337,398.405 			"/>
			<polyline style="fill:none;stroke:#B8B8B8;stroke-linecap:round;stroke-linejoin:round;stroke-miterlimit:10;" points="
				248.912,423.211 251.716,420.661 308.313,434.428 308.568,438.507 			"/>
			<polyline style="fill:none;stroke:#B8B8B8;stroke-linecap:round;stroke-linejoin:round;stroke-miterlimit:10;" points="
				308.313,434.428 318.474,432.915 321.628,436.797 			"/>
			<polyline style="fill:none;stroke:#B8B8B8;stroke-linecap:round;stroke-linejoin:round;stroke-miterlimit:10;" points="
				322.598,436.19 323.569,432.794 332.18,430.732 335.091,434.007 336.304,430.368 356.924,426.245 359.956,429.883 			"/>
			<polyline style="fill:none;stroke:#B8B8B8;stroke-linecap:round;stroke-linejoin:round;stroke-miterlimit:10;" points="
				363.109,428.428 364.686,425.153 372.206,423.212 375.36,426.608 			"/>
			<polyline style="fill:none;stroke:#B8B8B8;stroke-linecap:round;stroke-linejoin:round;stroke-miterlimit:10;" points="
				376.573,426.123 377.543,422.363 383.486,421.15 386.64,423.455 388.459,420.18 395.13,419.088 397.435,421.029 			"/>
			<polyline style="fill:none;stroke:#B8B8B8;stroke-linecap:round;stroke-linejoin:round;stroke-miterlimit:10;" points="
				251.716,420.661 260.861,419.331 263.651,420.301 264.743,417.997 267.168,417.754 271.414,417.754 274.567,417.026 
				277.114,415.45 283.543,415.45 288.758,415.328 289.85,413.994 297.491,412.903 302.585,413.752 305.133,410.598 
				312.774,410.234 315.442,410.355 317.262,409.021 337.032,405.989 341.034,406.474 343.096,404.17 361.047,401.987 
				368.204,403.078 369.659,404.897 			"/>
			
				<line style="fill:none;stroke:#B8B8B8;stroke-linecap:round;stroke-linejoin:round;stroke-miterlimit:10;" x1="355.589" y1="408.294" x2="367.84" y2="405.746"/>
			<polyline style="fill:none;stroke:#B8B8B8;stroke-linecap:round;stroke-linejoin:round;stroke-miterlimit:10;" points="
				370.751,405.625 387.365,409.902 375.845,412.66 359.349,409.264 			"/>
			
				<line style="fill:none;stroke:#B8B8B8;stroke-linecap:round;stroke-linejoin:round;stroke-miterlimit:10;" x1="375.845" y1="412.66" x2="375.845" y2="418.603"/>
			<polyline style="fill:none;stroke:#B8B8B8;stroke-linecap:round;stroke-linejoin:round;stroke-miterlimit:10;" points="
				395.13,419.088 384.578,416.663 378.028,417.39 377.179,419.331 			"/>
			<polyline style="fill:none;stroke:#B8B8B8;stroke-linecap:round;stroke-linejoin:round;stroke-miterlimit:10;" points="
				383.486,421.15 371.721,418.603 367.597,420.301 366.991,421.272 			"/>
			
				<line style="fill:none;stroke:#B8B8B8;stroke-linecap:round;stroke-linejoin:round;stroke-miterlimit:10;" x1="377.543" y1="422.363" x2="370.993" y2="420.908"/>
			
				<line style="fill:none;stroke:#B8B8B8;stroke-linecap:round;stroke-linejoin:round;stroke-miterlimit:10;" x1="388.459" y1="420.18" x2="380.575" y2="418.724"/>
			<polyline style="fill:none;stroke:#B8B8B8;stroke-linecap:round;stroke-linejoin:round;stroke-miterlimit:10;" points="
				364.686,425.153 354.619,421.757 362.867,420.544 371.236,422.363 			"/>
			<polygon style="fill:none;stroke:#B8B8B8;stroke-linecap:round;stroke-linejoin:round;stroke-miterlimit:10;" points="
				353.77,416.663 361.654,419.088 369.78,417.269 362.26,414.843 			"/>
			<polyline style="fill:none;stroke:#B8B8B8;stroke-linecap:round;stroke-linejoin:round;stroke-miterlimit:10;" points="
				353.77,416.663 350.98,419.695 354.376,420.908 			"/>
			
				<line style="fill:none;stroke:#B8B8B8;stroke-linecap:round;stroke-linejoin:round;stroke-miterlimit:10;" x1="369.78" y1="417.269" x2="371.721" y2="418.603"/>
			
				<line style="fill:none;stroke:#B8B8B8;stroke-linecap:round;stroke-linejoin:round;stroke-miterlimit:10;" x1="356.924" y1="426.245" x2="306.224" y2="414.601"/>
			
				<line style="fill:none;stroke:#B8B8B8;stroke-linecap:round;stroke-linejoin:round;stroke-miterlimit:10;" x1="266.198" y1="421.029" x2="316.291" y2="432.552"/>
			
				<line style="fill:none;stroke:#B8B8B8;stroke-linecap:round;stroke-linejoin:round;stroke-miterlimit:10;" x1="267.775" y1="419.21" x2="321.992" y2="431.945"/>
			
				<line style="fill:none;stroke:#B8B8B8;stroke-linecap:round;stroke-linejoin:round;stroke-miterlimit:10;" x1="275.659" y1="418.118" x2="330.24" y2="430.005"/>
			<polyline style="fill:none;stroke:#B8B8B8;stroke-linecap:round;stroke-linejoin:round;stroke-miterlimit:10;" points="
				288.516,416.177 332.059,425.881 342.005,423.94 			"/>
			<polyline style="fill:none;stroke:#B8B8B8;stroke-linecap:round;stroke-linejoin:round;stroke-miterlimit:10;" points="
				379.026,417.377 381.102,412.941 406.679,407.844 414.418,409.732 515.966,391.428 525.62,393.093 529.06,396.311 			"/>
			<polyline style="fill:none;stroke:#B8B8B8;stroke-linecap:round;stroke-linejoin:round;stroke-miterlimit:10;" points="
				525.62,393.093 425.416,413.4 426.526,416.618 			"/>
			<polyline style="fill:none;stroke:#B8B8B8;stroke-linecap:round;stroke-linejoin:round;stroke-miterlimit:10;" points="
				430.631,406.964 439.953,409.96 442.505,412.623 			"/>
			<polyline style="fill:none;stroke:#B8B8B8;stroke-linecap:round;stroke-linejoin:round;stroke-miterlimit:10;" points="
				444.169,404.301 454.822,407.519 456.82,409.849 			"/>
			<polyline style="fill:none;stroke:#B8B8B8;stroke-linecap:round;stroke-linejoin:round;stroke-miterlimit:10;" points="
				498.211,394.868 507.199,396.977 509.308,398.752 			"/>
			<polyline style="fill:none;stroke:#B8B8B8;stroke-linecap:round;stroke-linejoin:round;stroke-miterlimit:10;" points="
				509.862,392.871 517.297,395.091 518.74,396.977 			"/>
			<polyline style="fill:none;stroke:#B8B8B8;stroke-linecap:round;stroke-linejoin:round;stroke-miterlimit:10;" points="
				391.571,417.284 393.79,414.843 403.333,417.617 421.532,414.177 412.322,411.181 			"/>
			
				<line style="fill:none;stroke:#B8B8B8;stroke-linecap:round;stroke-linejoin:round;stroke-miterlimit:10;" x1="421.532" y1="414.177" x2="422.975" y2="417.284"/>
			
				<line style="fill:none;stroke:#B8B8B8;stroke-linecap:round;stroke-linejoin:round;stroke-miterlimit:10;" x1="425.416" y1="413.4" x2="417.759" y2="410.848"/>
			
				<line style="fill:none;stroke:#B8B8B8;stroke-linecap:round;stroke-linejoin:round;stroke-miterlimit:10;" x1="393.79" y1="414.843" x2="409.88" y2="411.736"/>
			
				<line style="fill:none;stroke:#B8B8B8;stroke-linecap:round;stroke-linejoin:round;stroke-miterlimit:10;" x1="381.917" y1="413.511" x2="387.798" y2="415.287"/>
			<polyline style="fill:none;stroke:#B8B8B8;stroke-linecap:round;stroke-linejoin:round;stroke-miterlimit:10;" points="
				287.076,420.273 288.491,418.387 293.204,417.327 			"/>
			<polyline style="fill:none;stroke:#B8B8B8;stroke-linecap:round;stroke-linejoin:round;stroke-miterlimit:10;" points="
				298.625,423.219 299.804,421.334 304.046,420.037 			"/>
			<polyline style="fill:none;stroke:#B8B8B8;stroke-linecap:round;stroke-linejoin:round;stroke-miterlimit:10;" points="
				311.824,425.223 313.003,424.044 318.424,423.101 			"/>
			
				<line style="fill:none;stroke:#B8B8B8;stroke-linecap:round;stroke-linejoin:round;stroke-miterlimit:10;" x1="294.736" y1="430.643" x2="299.45" y2="429.229"/>
			
				<line style="fill:none;stroke:#B8B8B8;stroke-linecap:round;stroke-linejoin:round;stroke-miterlimit:10;" x1="285.544" y1="428.287" x2="288.726" y2="427.108"/>
			
				<line style="fill:none;stroke:#B8B8B8;stroke-linecap:round;stroke-linejoin:round;stroke-miterlimit:10;" x1="262.446" y1="422.394" x2="267.985" y2="421.923"/>
			
				<line style="fill:none;stroke:#B8B8B8;stroke-linecap:round;stroke-linejoin:round;stroke-miterlimit:10;" x1="271.049" y1="424.515" x2="276.824" y2="423.808"/>
			<polyline style="fill:none;stroke:#B8B8B8;stroke-linecap:round;stroke-linejoin:round;stroke-miterlimit:10;" points="
				316.656,416.973 319.366,414.616 325.73,416.266 325.73,417.68 			"/>
			<polyline style="fill:none;stroke:#B8B8B8;stroke-linecap:round;stroke-linejoin:round;stroke-miterlimit:10;" points="
				326.673,416.384 333.508,414.852 335.983,416.62 337.515,413.556 344.704,412.024 347.532,414.734 349.182,411.67 
				356.488,410.492 359.317,413.084 			"/>
			<polyline style="fill:none;stroke:#B8B8B8;stroke-linecap:round;stroke-linejoin:round;stroke-miterlimit:10;" points="
				321.841,413.791 348.946,408.606 354.014,409.667 			"/>
			
				<line style="fill:none;stroke:#B8B8B8;stroke-linecap:round;stroke-linejoin:round;stroke-miterlimit:10;" x1="333.508" y1="414.852" x2="328.441" y2="412.849"/>
			
				<line style="fill:none;stroke:#B8B8B8;stroke-linecap:round;stroke-linejoin:round;stroke-miterlimit:10;" x1="337.515" y1="413.556" x2="332.801" y2="412.259"/>
			
				<line style="fill:none;stroke:#B8B8B8;stroke-linecap:round;stroke-linejoin:round;stroke-miterlimit:10;" x1="349.182" y1="411.67" x2="342.936" y2="410.374"/>
			
				<line style="fill:none;stroke:#B8B8B8;stroke-linecap:round;stroke-linejoin:round;stroke-miterlimit:10;" x1="315.442" y1="410.355" x2="325.495" y2="412.966"/>
			
				<line style="fill:none;stroke:#B8B8B8;stroke-linecap:round;stroke-linejoin:round;stroke-miterlimit:10;" x1="318.07" y1="409.313" x2="329.501" y2="412.377"/>
			
				<line style="fill:none;stroke:#B8B8B8;stroke-linecap:round;stroke-linejoin:round;stroke-miterlimit:10;" x1="327.027" y1="408.135" x2="336.808" y2="411.081"/>
			<polyline style="fill:none;stroke:#B8B8B8;stroke-linecap:round;stroke-linejoin:round;stroke-miterlimit:10;" points="
				330.68,407.31 340.108,410.727 344.704,412.024 			"/>
			
				<line style="fill:none;stroke:#B8B8B8;stroke-linecap:round;stroke-linejoin:round;stroke-miterlimit:10;" x1="342.111" y1="406.956" x2="346.589" y2="408.253"/>
			<polyline style="fill:none;stroke:#B8B8B8;stroke-linecap:round;stroke-linejoin:round;stroke-miterlimit:10;" points="
				343.096,404.17 352.953,406.249 353.66,408.724 			"/>
			
				<line style="fill:none;stroke:#B8B8B8;stroke-linecap:round;stroke-linejoin:round;stroke-miterlimit:10;" x1="363.677" y1="401.064" x2="471.39" y2="383.504"/>
			
				<line style="fill:none;stroke:#B8B8B8;stroke-linecap:round;stroke-linejoin:round;stroke-miterlimit:10;" x1="373.143" y1="404.303" x2="482.897" y2="385.748"/>
			
				<line style="fill:none;stroke:#B8B8B8;stroke-linecap:round;stroke-linejoin:round;stroke-miterlimit:10;" x1="381.546" y1="407.279" x2="494.8" y2="387.499"/>
			
				<line style="fill:none;stroke:#B8B8B8;stroke-linecap:round;stroke-linejoin:round;stroke-miterlimit:10;" x1="409.553" y1="406.929" x2="506.528" y2="389.599"/>
			
				<line style="fill:none;stroke:#B8B8B8;stroke-linecap:round;stroke-linejoin:round;stroke-miterlimit:10;" x1="455.561" y1="385.934" x2="499.74" y2="393.998"/>
			
				<line style="fill:none;stroke:#B8B8B8;stroke-linecap:round;stroke-linejoin:round;stroke-miterlimit:10;" x1="466.431" y1="384.414" x2="506.168" y2="392.479"/>
			
				<line style="fill:none;stroke:#B8B8B8;stroke-linecap:round;stroke-linejoin:round;stroke-miterlimit:10;" x1="483.261" y1="397.387" x2="449.133" y2="387.687"/>
			
				<line style="fill:none;stroke:#B8B8B8;stroke-linecap:round;stroke-linejoin:round;stroke-miterlimit:10;" x1="472.158" y1="399.491" x2="441.186" y2="389.79"/>
			
				<line style="fill:none;stroke:#B8B8B8;stroke-linecap:round;stroke-linejoin:round;stroke-miterlimit:10;" x1="454.977" y1="402.764" x2="425.174" y2="391.777"/>
			
				<line style="fill:none;stroke:#B8B8B8;stroke-linecap:round;stroke-linejoin:round;stroke-miterlimit:10;" x1="445.51" y1="404.517" x2="416.525" y2="393.414"/>
			
				<line style="fill:none;stroke:#B8B8B8;stroke-linecap:round;stroke-linejoin:round;stroke-miterlimit:10;" x1="434.758" y1="406.504" x2="406.591" y2="394.933"/>
			
				<line style="fill:none;stroke:#B8B8B8;stroke-linecap:round;stroke-linejoin:round;stroke-miterlimit:10;" x1="422.836" y1="408.374" x2="396.072" y2="396.452"/>
			
				<line style="fill:none;stroke:#B8B8B8;stroke-linecap:round;stroke-linejoin:round;stroke-miterlimit:10;" x1="407.409" y1="408.491" x2="385.202" y2="398.206"/>
			
				<line style="fill:none;stroke:#B8B8B8;stroke-linecap:round;stroke-linejoin:round;stroke-miterlimit:10;" x1="397.007" y1="409.776" x2="375.151" y2="399.725"/>
			
				<line style="fill:none;stroke:#B8B8B8;stroke-linecap:round;stroke-linejoin:round;stroke-miterlimit:10;" x1="292.287" y1="411.529" x2="294.858" y2="408.607"/>
			
				<line style="fill:none;stroke:#B8B8B8;stroke-linecap:round;stroke-linejoin:round;stroke-miterlimit:10;" x1="303.857" y1="407.088" x2="308.883" y2="408.958"/>
			
				<line style="fill:none;stroke:#B8B8B8;stroke-linecap:round;stroke-linejoin:round;stroke-miterlimit:10;" x1="314.61" y1="405.569" x2="319.986" y2="407.322"/>
			
				<line style="fill:none;stroke:#B8B8B8;stroke-linecap:round;stroke-linejoin:round;stroke-miterlimit:10;" x1="327.466" y1="403.114" x2="334.245" y2="405.452"/>
			
				<line style="fill:none;stroke:#B8B8B8;stroke-linecap:round;stroke-linejoin:round;stroke-miterlimit:10;" x1="340.089" y1="401.01" x2="347.452" y2="402.764"/>
			
				<line style="fill:none;stroke:#B8B8B8;stroke-linecap:round;stroke-linejoin:round;stroke-miterlimit:10;" x1="350.374" y1="399.257" x2="357.854" y2="401.595"/>
			
				<line style="fill:none;stroke:#B8B8B8;stroke-linecap:round;stroke-linejoin:round;stroke-miterlimit:10;" x1="361.594" y1="397.387" x2="367.437" y2="399.141"/>
			
				<line style="fill:none;stroke:#B8B8B8;stroke-linecap:round;stroke-linejoin:round;stroke-miterlimit:10;" x1="387.306" y1="393.414" x2="392.215" y2="394.933"/>
			
				<line style="fill:none;stroke:#B8B8B8;stroke-linecap:round;stroke-linejoin:round;stroke-miterlimit:10;" x1="397.591" y1="391.66" x2="403.201" y2="393.063"/>
			
				<line style="fill:none;stroke:#B8B8B8;stroke-linecap:round;stroke-linejoin:round;stroke-miterlimit:10;" x1="406.707" y1="390.024" x2="412.317" y2="391.076"/>
			
				<line style="fill:none;stroke:#B8B8B8;stroke-linecap:round;stroke-linejoin:round;stroke-miterlimit:10;" x1="419.447" y1="388.271" x2="425.408" y2="390.024"/>
			
				<line style="fill:none;stroke:#B8B8B8;stroke-linecap:round;stroke-linejoin:round;stroke-miterlimit:10;" x1="430.901" y1="386.518" x2="437.679" y2="387.921"/>
			
				<line style="fill:none;stroke:#B8B8B8;stroke-linecap:round;stroke-linejoin:round;stroke-miterlimit:10;" x1="439.432" y1="384.882" x2="446.211" y2="386.518"/>
			
				<line style="fill:none;stroke:#B8B8B8;stroke-linecap:round;stroke-linejoin:round;stroke-miterlimit:10;" x1="449.016" y1="383.479" x2="454.743" y2="384.999"/>
		</g>
	</g>
</g>
<g id="Mouse">
	<g>
		<path style="fill:#A3A3A3;stroke:#263238;stroke-linecap:round;stroke-linejoin:round;stroke-miterlimit:10;" d="M265.99,442.172
			c0,0-11.675-15.243-30.81-19.134c-19.134-3.892-29.512,2.919-38.917,8.108c-9.405,5.189-18.486,9.405-17.513,13.297
			c0.973,3.892,4.216,7.459,7.135,8.756c2.919,1.297,31.134,11.351,44.431,12.648c13.297,1.297,29.188-2.27,34.053-7.135
			C269.233,453.847,265.99,442.172,265.99,442.172z"/>
		<path style="fill:#707070;stroke:#263238;stroke-linecap:round;stroke-linejoin:round;stroke-miterlimit:10;" d="M263.052,438.879
			c-4.594-4.707-14.373-13.096-27.872-15.842c-19.135-3.892-29.512,2.919-38.917,8.108c-1.788,0.987-3.564,1.938-5.262,2.858
			c1.999-0.471,15.839-3.546,22.45,0.06c7.135,3.892,20.107,9.405,34.053,9.405C255.427,443.469,260.308,441.166,263.052,438.879z"
			/>
		<path style="fill:#263238;stroke:#263238;stroke-linecap:round;stroke-linejoin:round;stroke-miterlimit:10;" d="M266.907,452.639
			c-4.743,2.916-11.791,5.747-21.024,5.423c-18.486-0.649-25.945-12.648-37.62-19.134c-11.675-6.486-29.512,5.513-29.512,5.513
			c0.973,3.892,4.216,7.459,7.135,8.757c2.919,1.297,31.134,11.351,44.431,12.648c13.297,1.297,29.188-2.27,34.053-7.135
			C265.906,457.173,266.631,454.954,266.907,452.639z"/>
	</g>
</g>
<g id="Device_1">
	<polygon style="fill:#A3A3A3;stroke:#263238;stroke-linecap:round;stroke-linejoin:round;stroke-miterlimit:10;" points="
		74.711,87.626 69.797,90.592 96.893,350.796 101.393,348.913 	"/>
	<g>
		<g>
			<path style="fill:#A3A3A3;stroke:#263238;stroke-linecap:round;stroke-linejoin:round;stroke-miterlimit:10;" d="
				M229.465,334.964l-21.191,61.541l49.059-10.45c0,0-8.709-6.096-7.548-15.385c1.161-9.289,13.063-37.737,13.063-37.737
				L229.465,334.964z"/>
			<path style="fill:#263238;stroke:#263238;stroke-linecap:round;stroke-linejoin:round;stroke-miterlimit:10;" d="
				M249.785,370.669c1.161-9.289,13.063-37.737,13.063-37.737l-23.491,1.43c-1.873,5.417-12.566,34.98-13.085,43.274
				c-0.487,7.788,4.116,12.298,6.134,13.728l24.927-5.31C257.333,386.055,248.624,379.959,249.785,370.669z"/>
		</g>
		<polygon style="fill:#263238;stroke:#263238;stroke-linecap:round;stroke-linejoin:round;stroke-miterlimit:10;" points="
			74.711,87.626 101.393,348.913 404.465,320.72 377.783,122.867 		"/>
		<g>
			<polygon style="fill:#92E3A9;stroke:#263238;stroke-linecap:round;stroke-linejoin:round;stroke-miterlimit:10;" points="
				85.283,98.199 110.959,337.333 394.9,312.665 372.245,132.433 			"/>
			<g>
				<g>
					
						<ellipse transform="matrix(0.8569 -0.5154 0.5154 0.8569 -60.801 158.0603)" style="fill:#FFFFFF;stroke:#263238;stroke-linecap:round;stroke-linejoin:round;stroke-miterlimit:10;" cx="254.312" cy="188.55" rx="23.98" ry="28.478"/>
					<path style="fill:#FFFFFF;stroke:#263238;stroke-linecap:round;stroke-linejoin:round;stroke-miterlimit:10;" d="
						M257.062,185.96c4.383-0.88,6.445-5.67,4.604-10.698c-1.84-5.028-6.886-8.39-11.269-7.51c-4.383,0.88-6.445,5.67-4.604,10.698
						C247.633,183.478,252.679,186.84,257.062,185.96z"/>
					<path style="fill:#FFFFFF;stroke:#263238;stroke-linecap:round;stroke-linejoin:round;stroke-miterlimit:10;" d="
						M278.873,198.843c-7.357-8.367-17.636-13.388-26.951-12.225c-9.202,1.149-15.091,8.039-16.145,17.27
						c6.817,8.997,17.677,13.854,27.61,11.381C271.448,213.262,277.001,206.9,278.873,198.843z"/>
				</g>
				<polygon style="fill:#FFFFFF;stroke:#263238;stroke-linecap:round;stroke-linejoin:round;stroke-miterlimit:10;" points="
					304.22,243.066 218.653,243.066 216.297,228.17 301.863,228.17 				"/>
			</g>
		</g>
		<polygon style="fill:#FFFFFF;stroke:#263238;stroke-linecap:round;stroke-linejoin:round;stroke-miterlimit:10;" points="
			96.893,350.796 403.046,322.323 404.465,320.72 101.393,348.913 		"/>
		<path style="fill:#263238;stroke:#263238;stroke-linecap:round;stroke-linejoin:round;stroke-miterlimit:10;" d="M191.325,421.601
			c0,0,6.434-6.135,12.718-8.977c6.284-2.843,32.767-12.867,62.99-15.261c30.223-2.394,101.742-3.74,106.53-3.89
			c4.788-0.15,10.324-0.598,10.922-2.244c0.599-1.646,0.865-8.947,0.865-8.947l-21.191,7.838l-2.117-2.032
			c0,0-23.341-2.244-66.132,1.197c-42.792,3.441-68.826,10.025-86.331,15.561C192.073,410.38,191.325,421.601,191.325,421.601z"/>
		<path style="fill:#707070;stroke:#263238;stroke-linecap:round;stroke-linejoin:round;stroke-miterlimit:10;" d="M165.892,409.858
			l26.997,9.289c0,0,10.16-14.805,59.509-22.642c49.349-7.838,111.76-6.386,111.76-6.386l21.191-7.838
			c0,0-80.99-4.645-133.532,2.322C199.275,391.57,172.569,401.73,165.892,409.858z"/>
	</g>
	<path style="fill:#263238;stroke:#263238;stroke-linecap:round;stroke-linejoin:round;stroke-miterlimit:10;" d="M165.892,409.858
		c0,0-8.709,10.741-6.386,11.611c2.322,0.871,28.738,1.161,30.77,0.29c2.032-0.871,2.613-2.613,2.613-2.613L165.892,409.858z"/>
</g>
<g id="Plant">
	<g>
		<path style="fill:#FFFFFF;stroke:#263238;stroke-linecap:round;stroke-linejoin:round;stroke-miterlimit:10;" d="M65.037,422.006
			l5.314,44.704c0,8.252,13.848,14.941,30.93,14.941s30.93-6.689,30.93-14.941l5.314-44.704H65.037z"/>
		
			<ellipse style="fill:#FFFFFF;stroke:#263238;stroke-linecap:round;stroke-linejoin:round;stroke-miterlimit:10;" cx="101.281" cy="422.006" rx="36.244" ry="10.265"/>
		<ellipse style="fill:#263238;" cx="101.281" cy="422.006" rx="28.243" ry="7.999"/>
		<g>
			<path style="fill:#263238;" d="M39.017,321.749c3.356,0.921,11.05-0.372,11.056-0.373c0.08-0.014-2.392-4.813-2.582-5.098
				c-2.208-3.297-8.413-8.371-12.686-7.15c-3.078,0.88-4.369,4.275-3.231,7.129C32.736,319.171,36.158,320.964,39.017,321.749z"/>
			<path style="fill:#263238;" d="M117.346,312.125c0.074,0.033,0.66-5.334,0.658-5.677c-0.023-3.968-2.399-11.623-6.637-12.962
				c-3.052-0.964-6.002,1.155-6.627,4.163c-0.639,3.072,1.227,6.456,3.177,8.688C110.209,308.957,117.34,312.123,117.346,312.125z"
				/>
			<path style="fill:#263238;" d="M136.331,280.809c-4.441,0.164-8.768,6.91-9.846,10.729c-0.093,0.33-0.956,5.66-0.875,5.647
				c0,0,0.075-0.012,0.093-0.015c-0.691,1.06-1.42,2.204-2.192,3.47c-1.406,2.349-2.973,5.017-4.482,8.035
				c-1.516,3.012-3.079,6.327-4.41,9.968c-1.339,3.647-2.561,7.552-3.3,11.738c-0.009,0.047-0.011,0.098-0.019,0.145
				c-0.164-1.291-0.744-4.887-0.82-5.158c-1.069-3.821-5.382-10.577-9.823-10.75c-3.199-0.124-5.484,2.7-5.293,5.766
				c0.195,3.131,2.888,5.903,5.359,7.54c2.786,1.846,9.944,2.987,10.514,3.076c-0.667,3.993-1.027,8.145-1.161,12.367
				c-0.079,2.414-0.083,4.847-0.056,7.287c-0.178-1.112-0.345-2.105-0.384-2.241c-1.07-3.822-5.382-10.577-9.823-10.749
				c-3.2-0.124-5.484,2.699-5.293,5.765c0.195,3.131,2.888,5.903,5.359,7.54c2.507,1.661,8.59,2.757,10.204,3.025
				c0.02,0.936,0.03,1.871,0.054,2.807c0.112,4.49,0.244,8.971,0.239,13.369c-0.001,1.55-0.059,3.077-0.112,4.604
				c-0.159-0.987-0.301-1.818-0.336-1.942c-1.07-3.822-5.382-10.577-9.823-10.749c-3.199-0.125-5.484,2.699-5.293,5.766
				c0.195,3.13,2.888,5.903,5.359,7.54c2.393,1.585,7.998,2.646,9.914,2.975c-0.102,1.562-0.2,3.128-0.368,4.637
				c-0.139,1.028-0.2,2.028-0.396,3.053c-0.173,1.019-0.344,2.028-0.514,3.027c-0.397,1.912-0.796,3.887-1.23,5.742
				c-0.292,1.293-0.595,2.519-0.896,3.755c0.02-1.542-0.007-4.564-0.038-4.816c-0.318-2.618-1.859-6.725-4.135-9.438
				c-0.045-0.387-0.123-0.768-0.239-1.141c-0.918-2.931-4.061-4.752-7.004-3.492c-4.086,1.748-5.7,9.599-5.333,13.55
				c0.021,0.233,0.54,2.736,0.892,4.309c-0.348-0.894-0.675-1.765-1.045-2.68c-0.718-1.815-1.488-3.605-2.31-5.535
				c-0.429-0.917-0.863-1.844-1.302-2.78c-0.414-0.938-0.972-1.875-1.457-2.824c-1.174-2.176-2.469-4.324-3.822-6.46
				c1.588-0.633,7.194-2.961,9.272-5.094c2.068-2.123,4.112-5.402,3.64-8.504c-0.463-3.037-3.293-5.313-6.394-4.513
				c-4.303,1.109-7.088,8.624-7.324,12.586c-0.015,0.247,0.135,3.109,0.249,4.679c-0.824-1.278-1.639-2.556-2.513-3.822
				c-2.525-3.652-5.194-7.271-7.841-10.892c-0.812-1.109-1.606-2.223-2.407-3.336c0.568-0.219,7.291-2.842,9.618-5.231
				c2.069-2.123,4.113-5.402,3.641-8.504c-0.463-3.037-3.293-5.312-6.394-4.513c-4.303,1.109-7.088,8.625-7.324,12.586
				c-0.018,0.298,0.205,4.416,0.312,5.46c-1.761-2.451-3.494-4.91-5.104-7.404c-2.226-3.438-4.22-6.934-5.9-10.464
				c0.264-0.102,7.294-2.808,9.678-5.254c2.068-2.123,4.113-5.402,3.64-8.504c-0.462-3.037-3.294-5.313-6.394-4.514
				c-4.304,1.109-7.088,8.624-7.324,12.585c-0.016,0.261,0.151,3.399,0.265,4.889c-0.135,0.035-0.11,0.028-0.245,0.063
				c-1.756-3.804-2.977-7.709-3.94-11.421c-0.562-2.149-0.979-4.234-1.339-6.272c1.361-0.37,7.562-2.128,9.95-4.093
				c2.289-1.883,4.681-4.918,4.553-8.052c-0.127-3.069-2.69-5.642-5.86-5.188c-4.399,0.63-7.992,7.794-8.661,11.705
				c-0.036,0.212-0.167,2.416-0.24,4.022c-0.148-0.922-0.318-1.871-0.443-2.758c-0.476-3.327-0.707-6.402-0.89-9.128
				c-0.091-1.551-0.143-2.955-0.178-4.269c1.146-1.06,5.712-5.388,6.905-8.181c1.164-2.726,1.888-6.522,0.33-9.244
				c-1.527-2.666-4.988-3.768-7.591-1.905c-3.614,2.586-3.502,10.6-2.294,14.38c0.105,0.327,2.325,5.248,2.385,5.193
				c0,0,0.056-0.051,0.069-0.064c0.008,1.265,0.031,2.622,0.087,4.103c0.123,2.735,0.288,5.824,0.694,9.175
				c0.397,3.348,0.923,6.976,1.821,10.746c0.896,3.781,2.03,7.712,3.723,11.611c0.019,0.044,0.045,0.088,0.064,0.132
				c-0.849-0.987-3.316-3.666-3.529-3.85c-3-2.597-10.324-5.852-14.123-3.547c-2.737,1.662-3.085,5.277-1.234,7.729
				c1.89,2.504,5.665,3.33,8.629,3.332c3.343,0.002,9.943-2.995,10.467-3.235c1.647,3.699,3.637,7.361,5.855,10.955
				c1.266,2.057,2.605,4.089,3.973,6.109c-0.762-0.829-1.449-1.565-1.556-1.658c-3.001-2.598-10.325-5.852-14.123-3.546
				c-2.737,1.661-3.085,5.277-1.234,7.728c1.89,2.504,5.665,3.33,8.629,3.333c3.007,0.002,8.685-2.44,10.179-3.106
				c0.533,0.769,1.056,1.544,1.592,2.311c2.571,3.683,5.153,7.347,7.575,11.019c0.854,1.294,1.648,2.599,2.447,3.902
				c-0.678-0.736-1.255-1.35-1.352-1.435c-3-2.597-10.324-5.853-14.123-3.547c-2.737,1.662-3.085,5.277-1.234,7.729
				c1.89,2.504,5.665,3.33,8.629,3.332c2.87,0.002,8.131-2.204,9.91-2.988c0.777,1.359,1.559,2.719,2.251,4.071
				c0.452,0.934,0.952,1.802,1.354,2.765c0.418,0.945,0.831,1.881,1.241,2.808c0.723,1.814,1.481,3.681,2.142,5.468
				c0.469,1.239,0.893,2.429,1.324,3.626c-0.835-1.297-2.524-3.803-2.689-3.996c-2.572-3.022-9.318-7.349-13.423-5.645
				c-2.956,1.228-3.849,4.749-2.39,7.453c1.489,2.761,5.095,4.15,8.025,4.601c3.225,0.496,9.938-1.358,10.775-1.595
				c0.706,1.984,1.374,3.92,1.974,5.757c2.079,6.303,3.575,11.637,4.574,15.405l2.981-0.432c-0.025-0.086-0.046-0.162-0.071-0.25
				c-1.095-3.796-2.733-9.194-4.992-15.573c-0.709-2.017-1.507-4.159-2.346-6.35c0.484-0.279,3.229-1.881,5.604-3.7
				c2.605,2.111,8.786,4.128,9.586,4.382c-0.505,2.044-1.017,4.027-1.529,5.891c-1.744,6.404-3.439,11.678-4.683,15.372l3.272-0.474
				c1.121-3.648,2.531-8.497,3.959-14.231c0.522-2.074,1.038-4.3,1.546-6.591c0.852,0.053,7.821,0.447,10.872-0.723
				c2.767-1.061,5.998-3.182,6.868-6.197c0.852-2.951-0.765-6.203-3.915-6.777c-4.372-0.796-10.049,4.861-11.923,8.359
				c-0.11,0.207-1.059,2.579-1.634,4.087c0.203-0.937,0.41-1.845,0.607-2.812c0.403-1.91,0.748-3.828,1.127-5.89
				c0.148-1.002,0.298-2.015,0.448-3.037c0.172-1.01,0.224-2.1,0.342-3.16c0.221-2.462,0.326-4.969,0.376-7.497
				c1.674,0.349,7.634,1.5,10.544,0.867c2.896-0.63,6.411-2.237,7.727-5.084c1.289-2.788,0.184-6.248-2.843-7.292
				c-4.201-1.449-10.67,3.283-13.052,6.457c-0.149,0.198-1.602,2.667-2.374,4.039c0.018-1.52,0.044-3.036,0.012-4.574
				c-0.091-4.439-0.321-8.93-0.531-13.41c-0.065-1.373-0.113-2.741-0.167-4.111c0.594,0.13,7.649,1.652,10.908,0.943
				c2.896-0.629,6.411-2.237,7.728-5.084c1.289-2.788,0.183-6.248-2.843-7.292c-4.201-1.449-10.67,3.283-13.052,6.457
				c-0.179,0.239-2.265,3.796-2.751,4.726c-0.117-3.016-0.205-6.024-0.172-8.991c0.04-4.096,0.306-8.111,0.851-11.983
				c0.277,0.062,7.633,1.683,10.971,0.957c2.896-0.63,6.411-2.237,7.728-5.085c1.29-2.788,0.184-6.248-2.843-7.292
				c-4.202-1.449-10.67,3.283-13.051,6.457c-0.157,0.208-1.748,2.915-2.475,4.221c-0.132-0.046-0.108-0.037-0.24-0.083
				c0.634-4.14,1.77-8.071,3.014-11.697c0.717-2.102,1.519-4.071,2.343-5.97c1.339,0.442,7.481,2.396,10.557,2.075
				c2.948-0.308,6.618-1.519,8.24-4.204c1.588-2.63,0.869-6.191-2.025-7.561c-4.017-1.902-10.966,2.092-13.682,4.985
				c-0.148,0.158-1.472,1.923-2.419,3.223c0.385-0.851,0.767-1.736,1.151-2.544c1.438-3.038,2.942-5.73,4.293-8.104
				c0.78-1.344,1.511-2.543,2.207-3.659c1.541-0.251,7.736-1.343,10.272-3.014c2.474-1.632,5.173-4.398,5.375-7.529
				C141.809,283.521,139.53,280.692,136.331,280.809z"/>
		</g>
	</g>
</g>
</svg>
